# xmcd CD database file
#
# Track frame offsets:
#	150
#	23582
#	68498
#	89388
#	120915
#	168343
#	173862
#	200724
#	221912
#
# Disc length: 3276 seconds
#
# Revision: 0
# Processed by: cddbd v1.5.2PL0 Copyright (c) Steve Scherf et al.
# Submitted via: CDex 1.51
#
DISCID=740cca09
DTITLE=various artist - Shibuya Jazz Classics- Kyoto Jazz Massive
DYEAR=1900
DGENRE=Jazz
TTITLE0=Ann Young-speak low
TTITLE1=Fumio Itabashi-Up into the sky
TTITLE2=Eri Ohno- norwegian wood
TTITLE3=Takashi Muzuhashi- samba de negrito
TTITLE4=Hiroshi Suzuki-shrimp dance
TTITLE5=Mickie Yoshino-group happening
TTITLE6=Clored Music-heartbeat
TTITLE7=Electro Keyboard orchestra- Soaring Seagull
TTITLE8=Hiromasa Suzuki-Out of focus
EXTD=
EXTT0=
EXTT1=
EXTT2=
EXTT3=
EXTT4=
EXTT5=
EXTT6=
EXTT7=
EXTT8=
PLAYORDER=
